<?xml version="1.0" standalone="no"?>
<!DOCTYPE svg PUBLIC "-//W3C//DTD SVG 20010904//EN"
 "http://www.w3.org/TR/2001/REC-SVG-20010904/DTD/svg10.dtd">
<svg version="1.0" xmlns="http://www.w3.org/2000/svg"
 width="512.000000pt" height="512.000000pt" viewBox="0 0 512.000000 512.000000"
 preserveAspectRatio="xMidYMid meet">

<g transform="translate(0.000000,512.000000) scale(0.100000,-0.100000)"
fill="#000000" stroke="none">
<path d="M980 4255 c-372 -68 -702 -323 -865 -668 -178 -375 -146 -804 87
-1157 53 -81 192 -226 278 -291 84 -63 219 -133 328 -170 167 -57 200 -59 838
-59 335 0 585 -4 588 -9 3 -5 42 -215 86 -468 44 -252 84 -475 90 -496 11 -39
57 -77 93 -77 51 0 75 29 173 207 53 98 99 180 101 182 2 3 95 -86 206 -197
270 -268 226 -267 484 -9 185 185 193 194 193 232 0 37 -8 47 -202 243 -192
192 -202 204 -184 218 11 7 86 50 167 94 l148 80 233 0 c250 0 307 6 445 46
183 52 354 155 498 299 246 246 371 569 352 904 -29 477 -351 899 -803 1050
-172 58 -215 61 -795 61 -374 0 -535 -3 -553 -11 -23 -11 -56 -62 -56 -89 0
-22 30 -70 53 -82 17 -10 154 -14 582 -18 544 -6 562 -7 640 -29 178 -50 324
-137 455 -271 217 -221 317 -535 265 -835 -72 -413 -385 -733 -793 -811 -52
-10 -155 -14 -352 -14 l-278 0 -603 106 c-581 102 -605 105 -637 90 -47 -23
-65 -69 -52 -137 6 -28 10 -54 10 -56 0 -2 -267 -2 -592 -1 -576 3 -595 4
-673 26 -102 28 -262 106 -345 170 -368 278 -491 776 -295 1190 80 169 198
306 349 407 94 62 167 96 286 133 l85 26 575 6 c439 4 580 8 597 18 53 30 59
107 14 153 l-29 29 -559 -1 c-425 -1 -576 -4 -633 -14z m1858 -2240 c206 -36
379 -65 385 -65 7 0 -32 -24 -85 -53 -54 -30 -109 -64 -122 -76 -28 -27 -38
-65 -25 -100 6 -15 103 -119 217 -234 l207 -207 -92 -92 -93 -93 -213 213
c-207 206 -214 212 -254 212 -57 0 -85 -26 -144 -136 -28 -51 -54 -96 -58 -98
-4 -3 -24 90 -44 207 -20 117 -52 299 -71 405 l-33 193 26 -6 c14 -3 194 -34
399 -70z"/>
<path d="M2523 4252 c-89 -70 -15 -207 92 -172 102 34 75 190 -32 190 -21 0
-48 -8 -60 -18z"/>
<path d="M1278 3541 l-33 -29 -3 -343 c-2 -223 -7 -348 -14 -356 -16 -20 -49
-15 -93 12 -51 32 -86 31 -124 -1 -53 -45 -50 -115 8 -162 30 -24 106 -59 142
-66 97 -17 208 44 255 141 l29 58 3 330 c2 220 0 342 -8 367 -23 78 -103 102
-162 49z"/>
<path d="M2011 3554 c-352 -94 -478 -537 -229 -800 101 -107 212 -156 358
-156 257 -1 463 190 486 451 16 177 -93 377 -252 463 -104 56 -248 73 -363 42z
m222 -200 c26 -9 69 -36 96 -60 150 -135 120 -373 -60 -463 -147 -73 -315 -18
-386 127 -36 74 -39 172 -6 244 60 131 219 199 356 152z"/>
<path d="M2889 3541 l-29 -29 0 -426 0 -426 28 -31 c21 -23 37 -31 64 -32 42
-1 85 24 98 59 15 37 13 829 -1 857 -32 63 -111 77 -160 28z"/>
<path d="M3360 3542 c-19 -19 -30 -44 -35 -73 -3 -24 -5 -215 -3 -424 3 -349
5 -382 21 -407 27 -39 76 -53 120 -34 59 24 61 37 67 296 l5 235 175 -254
c144 -209 181 -257 210 -268 48 -21 104 -3 130 40 18 30 20 52 20 302 0 149
-3 335 -7 415 -6 141 -7 146 -34 172 -46 47 -122 34 -155 -27 -15 -29 -17 -55
-11 -264 3 -132 2 -229 -3 -226 -5 3 -84 114 -175 248 -91 133 -180 254 -196
270 -40 37 -90 37 -129 -1z"/>
</g>
</svg>
